<svg xmlns="http://www.w3.org/2000/svg" width="1920.4" height="496.82" viewBox="0 0 1920.4 496.82">
  <defs>
    <style>
      .a {
        fill: #010101;
      }

      .b {
        fill: #ea532d;
      }
    </style>
  </defs>
  <g>
    <path class="a" d="M233.1,996.53c0,63.48-55.19,90.53-114.81,90.53-55.2,0-97.16-21-118.69-65.67l71.76-40.85c7.17,21,22.63,32.58,46.91,32.58,19.88,0,29.81-6,29.81-17.13,0-30.35-135.8-14.33-135.8-109.84,0-60.17,50.79-90.53,108.2-90.53,44.71,0,84.46,19.88,107.64,59.06l-70.66,38.1c-7.72-14.36-18.76-24.3-37-24.3C106.12,868.48,97.3,874,97.3,884,97.32,915.39,233.1,894.41,233.1,996.53Z" transform="translate(0.4 -692.92)"/>
    <path class="a" d="M371.08,882.82v97.7c0,23.73,20.43,25.94,56.86,23.73v75.08c-108.2,11-139.66-21.52-139.66-98.81v-97.7H244.12v-79.5h44.16V750.87L371.08,726v77.28h56.86v79.5Z" transform="translate(0.4 -692.92)"/>
    <path class="a" d="M745.32,909.86v169.47H662.51V922c0-34.22-21.53-50.23-48-50.23-30.35,0-51.33,17.67-51.33,56.86v150.69H480.34v-276h82.81v25.93c14.9-20.42,42.51-33.67,78.93-33.67C697.84,795.6,745.32,835.34,745.32,909.86Z" transform="translate(0.4 -692.92)"/>
    <path class="a" d="M1085.3,692.92v386.41h-82.81v-25.92c-18.21,21-45.26,33.67-82.24,33.67-72.32,0-131.93-63.48-131.93-145.73s59.62-145.73,131.93-145.73c37,0,64,12.69,82.24,33.66V692.92Zm-82.81,248.42c0-41.4-27.59-67.33-65.67-67.33s-65.67,25.92-65.67,67.33,27.6,67.35,65.67,67.35,65.67-26,65.67-67.36Z" transform="translate(0.4 -692.92)"/>
    <path class="a" d="M1405.59,803.33v276H1322.8v-25.92c-14.92,20.42-42.51,33.67-78.94,33.67-55.76,0-103.23-39.75-103.23-114.27V803.33h82.79V960.64c0,34.23,21.54,50.25,48,50.25,30.36,0,51.34-17.67,51.34-56.86V803.33Z" transform="translate(0.4 -692.92)"/>
    <path class="a" d="M1763.25,941.33c0,82.25-59.62,145.74-131.94,145.74-37,0-64-12.7-82.25-33.68v136.35h-82.8V803.33h82.8v25.93c18.22-21,45.26-33.67,82.25-33.67C1703.64,795.6,1763.25,859.07,1763.25,941.33Zm-82.81,0c0-41.41-27.6-67.34-65.67-67.34s-65.67,25.93-65.67,67.34,27.6,67.35,65.67,67.35S1680.44,982.74,1680.44,941.33Z" transform="translate(0.4 -692.92)"/>
    <path class="b" d="M1794.55,1034.62a62.73,62.73,0,1,1,62.73,62.72h0A63.1,63.1,0,0,1,1794.55,1034.62Z" transform="translate(0.4 -692.92)"/>
  </g>
</svg>
